<?xml version="1.0" standalone="no"?><!DOCTYPE svg PUBLIC "-//W3C//DTD SVG 1.1//EN" "http://www.w3.org/Graphics/SVG/1.1/DTD/svg11.dtd"><svg t="1585225192650" class="icon" viewBox="0 0 1162 1024" version="1.1" xmlns="http://www.w3.org/2000/svg" p-id="4797" xmlns:xlink="http://www.w3.org/1999/xlink" width="54.46875" height="48"><defs><style type="text/css"></style></defs><path d="M1078.307219 434.204947a38.595995 38.595995 0 0 0-15.920848 2.171025L887.980717 133.638634a72.367491 72.367491 0 0 0 20.504123-52.104594A80.327915 80.327915 0 0 0 829.121824 2.171025 75.744641 75.744641 0 0 0 752.412284 58.858893H410.11405a79.60424 79.60424 0 0 0-156.313781 20.504122 73.573616 73.573616 0 0 0 24.122498 56.687868L110.995087 434.204947a113.616961 113.616961 0 0 0-27.258422-4.583274 79.363015 79.363015 0 1 0 0 158.484805 67.060542 67.060542 0 0 0 22.675147-4.583274l174.405654 301.289988a78.63934 78.63934 0 0 0-24.122497 58.858893 80.327915 80.327915 0 0 0 79.363015 79.363015 78.15689 78.15689 0 0 0 76.950766-61.271142H752.412284a78.15689 78.15689 0 0 0 76.950765 61.271142 80.327915 80.327915 0 0 0 79.363016-79.363015 88.770789 88.770789 0 0 0-20.504123-54.275619l172.234629-299.118963a44.14417 44.14417 0 0 0 18.091873 2.171025 79.363015 79.363015 0 1 0 0-158.484806zM337.505334 860.93192a96.489988 96.489988 0 0 0-24.122497 4.583274l-175.129328-301.531213a72.367491 72.367491 0 0 0 24.122497-54.275618 84.669965 84.669965 0 0 0-22.675148-56.687868l167.651355-299.118964a81.53404 81.53404 0 0 0 24.122497 4.583275 81.53404 81.53404 0 0 0 24.122497-4.583275l172.234629 299.118964a76.227091 76.227091 0 0 0-29.429446 61.271142 73.573616 73.573616 0 0 0 24.122497 56.687868l-76.950766 142.805183-86.117314 151.730506a81.53404 81.53404 0 0 0-21.951473-4.583274z m521.045937 9.166549a62.718492 62.718492 0 0 0-29.429447-6.754299A78.15689 78.15689 0 0 0 752.412284 924.374087H412.285075a90.700589 90.700589 0 0 0-21.710247-41.008245l165.48033-296.706714a48.244994 48.244994 0 0 0 27.258421 6.7543 78.15689 78.15689 0 0 0 76.950766-61.271143h341.092108a78.63934 78.63934 0 0 0 27.258422 42.938045z m144.734982-371.486455H659.299445a75.985866 75.985866 0 0 0-76.950766-61.271142 62.718492 62.718492 0 0 0-20.504122 2.171024L390.574828 135.809658a79.845465 79.845465 0 0 0 22.675147-42.938044H752.412284a76.227091 76.227091 0 0 0 76.950765 65.613192 79.845465 79.845465 0 0 0 31.600471-6.7543l172.234629 299.118964a75.020966 75.020966 0 0 0-29.670671 47.521319z m-964.899882 11.337574A45.350294 45.350294 0 1 1 83.97789 554.817432a45.350294 45.350294 0 0 1-45.350294-45.109069zM335.33431 989.022379a45.350294 45.350294 0 1 1 45.350294-45.350294A48.244994 48.244994 0 0 1 335.33431 989.022379z m539.137809-45.350294a45.350294 45.350294 0 1 1-45.350295-45.350295 45.350294 45.350294 0 0 1 45.350295 46.315195zM289.984015 79.363015a45.350294 45.350294 0 1 1 45.350295 45.350295 45.350294 45.350294 0 0 1-45.350295-45.350295zM582.348679 559.641932a45.350294 45.350294 0 1 1 45.350295-45.350295 45.350294 45.350294 0 0 1-45.350295 45.350295z m541.308834-42.938045a45.350294 45.350294 0 1 1-45.350294-45.350295 45.350294 45.350294 0 0 1 45.350294 45.10907zM874.472119 79.363015a45.350294 45.350294 0 1 1-45.350295-45.350294 45.350294 45.350294 0 0 1 45.350295 45.350294zM448.710046 713.543463" fill="#2290EE" p-id="4798"></path></svg>